GIL06_slow2_RRA_states
nRows=7
nColumns=47

# SIMM Motion File Header:
name GIL06_slow2_RRA_states
datacolumns 47
datarows 7
otherdata 1
range 1.05982999999999410000 1.06282999999999370000
endheader
time	pelvis_tx	pelvis_ty	pelvis_tz	pelvis_tilt	pelvis_list	pelvis_rotation	hip_flexion_r	hip_adduction_r	hip_rotation_r	knee_angle_r	ankle_angle_r	subtalar_angle_r	mtp_angle_r	hip_flexion_l	hip_adduction_l	hip_rotation_l	knee_angle_l	ankle_angle_l	subtalar_angle_l	mtp_angle_l	lumbar_extension	lumbar_bending	lumbar_rotation	pelvis_tx_u	pelvis_ty_u	pelvis_tz_u	pelvis_tilt_u	pelvis_list_u	pelvis_rotation_u	hip_flexion_r_u	hip_adduction_r_u	hip_rotation_r_u	knee_angle_r_u	ankle_angle_r_u	subtalar_angle_r_u	mtp_angle_r_u	hip_flexion_l_u	hip_adduction_l_u	hip_rotation_l_u	knee_angle_l_u	ankle_angle_l_u	subtalar_angle_l_u	mtp_angle_l_u	lumbar_extension_u	lumbar_bending_u	lumbar_rotation_u
      1.05982999999999410000	      2.08610236875962230000	      0.82771793465409715000	     -0.26217697957438191000	     -3.54526972413973640000	     -2.56579726656155720000	     -0.15439366326191545000	      5.95922893850348510000	      7.60561319219195120000	      0.71012885149658223000	     -8.70972174581504000000	      3.83178368788061930000	      0.00000000000002340886	      0.00000000000002022479	     27.53497181961218100000	     -6.36189175313340180000	      0.35922963247021206000	    -55.50784911312391800000	      6.18214653955391840000	      0.00000000000000723148	     -0.00000000000035109855	      6.35159125800632560000	     -0.78055391348849668000	     14.48409728497262700000	      0.60514977445611673000	     -0.02938894238893514200	      0.01123677496614830300	    -12.41370616090144300000	     28.94987030765651800000	    -32.82346936665700100000	    -60.14180152841503700000	    -20.02487093345541800000	     23.61246310655061400000	     33.51676145416244200000	     29.79104165853197400000	      0.00000000000002119300	      0.00000000000032423199	     83.69819967894235900000	     48.55317174444782300000	     13.75482744241941500000	    208.03951353959644000000	     68.75325591943600000000	      0.00000000000011473121	     -0.00000000000082367981	     11.07813316611975700000	    -32.70416550085762000000	     38.21086129608063000000
      1.06032999999999400000	      2.08640497472059620000	      0.82770314069616746000	     -0.26217142784252195000	     -3.55149868642510570000	     -2.55133933835860830000	     -0.17082542031663989000	      5.92918630356910810000	      7.59560768368739580000	      0.72199093898160416000	     -8.69297515805771680000	      3.84669111956362460000	      0.00000000000002341905	      0.00000000000002038989	     27.57673682243084200000	     -6.33763432930943620000	      0.36612081042934175000	    -55.40357536502936900000	      6.21633846789490630000	      0.00000000000000728888	     -0.00000000000035151021	      6.35716966170972860000	     -0.79686247439524893000	     14.50317455727980200000	      0.60527441887788147000	     -0.02978647217799147000	      0.01097008828716567300	    -12.50176833986864000000	     28.88140742848855100000	    -32.90338360786669400000	    -60.02909976347071100000	    -19.99676177992361300000	     23.83479707545166800000	     33.46954429853320100000	     29.83862569812476600000	      0.00000000000001965559	      0.00000000000032863820	     83.36129434037721400000	     48.47595679450869000000	     13.81033790832005400000	    209.05489418947505000000	     68.01408742875609900000	      0.00000000000011472378	     -0.00000000000082353508	     11.23502393270972500000	    -32.52953916656558400000	     38.09771564906675000000
      1.06082999999999390000	      2.08670764352470960000	      0.82768814860357176000	     -0.26216600955224989000	     -3.55777111498939200000	     -2.53691628942249370000	     -0.18729686856878100000	      5.89919947601674450000	      7.58561682621709730000	      0.73396254692302065000	     -8.67625224979458490000	      3.86162221750796950000	      0.00000000000002342777	      0.00000000000002055666	     27.61833259580250700000	     -6.31341635699238780000	      0.37304042166906792000	    -55.29879481010084400000	      6.25016026796562050000	      0.00000000000000734621	     -0.00000000000035192173	      6.36282581986643340000	     -0.81308292136247573000	     14.52219449104463700000	      0.60540114041308746000	     -0.03018147157116898200	      0.01070300499911069200	    -12.58756547013048700000	     28.81036289959884300000	    -32.98222794085523200000	    -59.91857448144898500000	    -19.96627783315040400000	     24.05052080211785900000	     33.42203758219509500000	     29.88563308067953600000	      0.00000000000002008839	      0.00000000000031787342	     83.02128052626868300000	     48.39537802615218700000	     13.86855602883145100000	    210.06672657651717000000	     67.27276576013224500000	      0.00000000000011463533	     -0.00000000000082287293	     11.38914207504707900000	    -32.35172529921326400000	     37.98151267431588000000
      1.06132999999999390000	      2.08701037620338380000	      0.82767295964977516000	     -0.26216072490547737000	     -3.56408587246423410000	     -2.52252940135744820000	     -0.20380746695050370000	      5.86926736587681040000	      7.57564179708472360000	      0.74604035282712633000	     -8.65955317191416540000	      3.87657665591846850000	      0.00000000000002343731	      0.00000000000002071226	     27.65975758649851800000	     -6.28923950509852590000	      0.37998981618689776000	    -55.19350924028093900000	      6.28361088707283510000	      0.00000000000000740341	     -0.00000000000035233296	      6.36855833783372120000	     -0.82921367588429851000	     14.54115556284044600000	      0.60552991604039019000	     -0.03057391940734932900	      0.01043551431076597000	    -12.67108590476178000000	     28.73676307330104900000	    -33.05998433573574900000	    -59.81022861021836700000	    -19.93344655045876500000	     24.25960246367407400000	     33.37422233683128800000	     29.93205987384115800000	      0.00000000000002008041	      0.00000000000030888109	     82.67816837621960200000	     48.31147647031159000000	     13.92947244230579300000	    211.07494674235497000000	     66.52936553018919600000	      0.00000000000011396610	     -0.00000000000082175747	     11.54046431630438200000	    -32.17076879650670700000	     37.86226716252671300000
      1.06182999999999380000	      2.08731317377924830000	      0.82765757511243332000	     -0.26215557410782275000	     -3.57044181977038550000	     -2.50817994766847010000	     -0.22035666868933920000	      5.83938888401243620000	      7.56568376612678950000	      0.75822103810202912000	     -8.64287808228498560000	      3.89155418099827430000	      0.00000000000002345064	      0.00000000000002085494	     27.70101024969775900000	     -6.26510542730333860000	      0.38697034213580628000	    -55.08772047576233200000	      6.31668929902133060000	      0.00000000000000746011	     -0.00000000000035274346	      6.37436581465171590000	     -0.84525317406485512000	     14.56005625423629000000	      0.60566072250731162000	     -0.03096379715808954600	      0.01016760464398909000	    -12.75231949607767700000	     28.66063542431069800000	    -33.13663534046117600000	    -59.70406323939770500000	    -19.89829654972101700000	     24.46201608569577200000	     33.32607823535943200000	     29.97790813017434200000	      0.00000000000002482991	      0.00000000000030378012	     82.33196977429268800000	     48.22429433672903100000	     13.99307690682908700000	    212.07949122922980000000	     65.78395938344321800000	      0.00000000000011302308	     -0.00000000000081990829	     11.68896919127553200000	    -31.98671595877915800000	     37.73999796834543500000
      1.06232999999999380000	      2.08761603726051260000	      0.82764199628391255000	     -0.26215055737266657000	     -3.57683780915773440000	     -2.49386918265988160000	     -0.23694391516394842000	      5.80956293907789420000	      7.55574388220326120000	      0.77050125292656269000	     -8.62622715170090610000	      3.90655446706525880000	      0.00000000000002345691	      0.00000000000002102893	     27.74208904382377100000	     -6.24101575048546660000	      0.39398333933300972000	    -54.98143037209844400000	      6.34939452419389560000	      0.00000000000000751672	     -0.00000000000035315370	      6.38024683393638450000	     -0.86119988349173804000	     14.57889505997553000000	      0.60579353654397150000	     -0.03135108665864800400	      0.00989926430590971210	    -12.83125616810158800000	     28.58200751438211300000	    -33.21216348965779000000	    -59.60007936542363900000	    -19.86085659212255500000	     24.65773348083234900000	     33.27758610416836400000	     30.02317424889918800000	      0.00000000000000589555	      0.00000000000037295530	     81.98269690173802400000	     48.13387397317876500000	     14.05935872099823000000	    213.08029619180940000000	     65.03662059988357700000	      0.00000000000011309538	     -0.00000000000082060948	     11.83463534698521300000	    -31.79961324633999500000	     37.61472392720336400000
      1.06282999999999370000	      2.08791896764649640000	      0.82762622445966361000	     -0.26214567491743168000	     -3.58327269170139040000	     -2.47959835209963810000	     -0.25356864223623876000	      5.77978844121918820000	      7.54582328621643050000	      0.78287765187428837000	     -8.60960055761951000000	      3.92157725868439930000	      0.00000000000002346145	      0.00000000000002121025	     27.78299243646365500000	     -6.21697208579828420000	      0.40103014516967095000	    -54.87464081317266800000	      6.38172560924125330000	      0.00000000000000757337	     -0.00000000000035356396	      6.38619997364673870000	     -0.87705228693655790000	     14.59767048114590600000	      0.60592833465246665000	     -0.03173577236158566000	      0.00963048080342308530	    -12.90788732358002400000	     28.50090803012408700000	    -33.28655188636437100000	    -59.49827618689818800000	    -19.82115659233951600000	     24.84673230965984600000	     33.22872544777528200000	     30.06786075211366300000	      0.00000000000000988863	      0.00000000000035966781	     81.63036365712446200000	     48.04025891778424300000	     14.12830630999516400000	    214.07729829440902000000	     64.28742047194923300000	      0.00000000000011326414	     -0.00000000000082001267	     11.97744321933028100000	    -31.60950852286551800000	     37.48646793149465900000
